HIERARCHY
ROOT Hips
{
	OFFSET 0.00000 0.00000 0.00000
	CHANNELS 6 Xposition Yposition Zposition Zrotation Yrotation Xrotation 
	JOINT LHipJoint
	{
		OFFSET 0 0 0
		CHANNELS 3 Zrotation Yrotation Xrotation
		JOINT LeftHip
		{
			OFFSET 1.80322 -1.53100 0.99595
			CHANNELS 3 Zrotation Yrotation Xrotation
			JOINT LeftKnee
			{
				OFFSET 2.25177 -6.18669 0.00000
				CHANNELS 3 Zrotation Yrotation Xrotation
				JOINT LeftAnkle
				{
					OFFSET 2.26601 -6.22582 0.00000
					CHANNELS 3 Zrotation Yrotation Xrotation
					JOINT LeftToe
					{
						OFFSET 0.23701 -0.65119 2.15848
						CHANNELS 3 Zrotation Yrotation Xrotation
						End Site
						{
							OFFSET 0.00000 -0.00000 1.12949
						}
					}
				}
			}
		}
	}
	JOINT RHipJoint
	{
		OFFSET 0 0 0
		CHANNELS 3 Zrotation Yrotation Xrotation
		JOINT RightHip
		{
			OFFSET -1.93977 -1.53100 0.99595
			CHANNELS 3 Zrotation Yrotation Xrotation
			JOINT RightKnee
			{
				OFFSET -2.28036 -6.26523 0.00000
				CHANNELS 3 Zrotation Yrotation Xrotation
				JOINT RightAnkle
				{
					OFFSET -2.25490 -6.19528 0.00000
					CHANNELS 3 Zrotation Yrotation Xrotation
					JOINT RightToe
					{
						OFFSET -0.28375 -0.77960 2.23137
						CHANNELS 3 Zrotation Yrotation Xrotation
						End Site
						{
							OFFSET -0.00000 -0.00000 1.17899
						}
					}
				}
			}
		}
	}
	JOINT lowerback
	{
		OFFSET 0 0 0
		CHANNELS 3 Zrotation Yrotation Xrotation
		JOINT Chest
		{
			OFFSET -0.00088 2.12090 -0.02806
			CHANNELS 3 Zrotation Yrotation Xrotation
			JOINT Chest2
			{
				OFFSET -0.00286 2.09666 0.12974
				CHANNELS 3 Zrotation Yrotation Xrotation
				JOINT lowerneck
				{
					OFFSET 0 0 0
					CHANNELS 3 Zrotation Yrotation Xrotation
					JOINT Neck
					{
						OFFSET 0.07328 1.83526 0.07290
						CHANNELS 3 Zrotation Yrotation Xrotation
						JOINT Head
						{
							OFFSET -0.06683 1.74974 -0.49542
							CHANNELS 3 Zrotation Yrotation Xrotation
							End Site
							{
								OFFSET -0.03398 1.85163 -0.17573
							}
						}
					}
				}
				JOINT LeftCollar
				{
					OFFSET 0 0 0
					CHANNELS 3 Zrotation Yrotation Xrotation
					JOINT LeftShoulder
					{
						OFFSET 3.02113 1.18018 0.40602
CHANNELS 3 Zrotation Xrotation Yrotation
						JOINT LeftElbow
						{
OFFSET 0 -4.585380 -0.000000
CHANNELS 3 Zrotation Xrotation Yrotation
							JOINT LeftWrist
							{
OFFSET 0 -2.689350 -0.000000
CHANNELS 3 Zrotation Xrotation Yrotation
								JOINT lhand
								{
									OFFSET 0 0 0
CHANNELS 3 Zrotation Xrotation Yrotation
									JOINT LFingers
									{
OFFSET 0 -0.585060 -0.000000
CHANNELS 3 Zrotation Xrotation Yrotation
										End Site
										{
OFFSET 0 -0.471690 -0.000000
										}
									}
								}
								JOINT LThumb
								{
OFFSET 0 0.000000 0.000000
CHANNELS 3 Zrotation Xrotation Yrotation
									End Site
									{
OFFSET 0 -0.478890 0.478890
									}
								}
							}
						}
					}
				}
				JOINT RightCollar
				{
					OFFSET 0 0 0
					CHANNELS 3 Zrotation Yrotation Xrotation
					JOINT RightShoulder
					{
						OFFSET -2.95074 1.18843 0.31430
CHANNELS 3 Zrotation Xrotation Yrotation
						JOINT RightElbow
						{
OFFSET 0 -4.474500 -0.000000
CHANNELS 3 Zrotation Xrotation Yrotation
							JOINT RightWrist
							{
OFFSET 0 -2.938960 -0.000000
CHANNELS 3 Zrotation Xrotation Yrotation
								JOINT rhand
								{
									OFFSET 0 0 0
CHANNELS 3 Zrotation Xrotation Yrotation
									JOINT RFingers
									{
OFFSET 0 -0.405090 -0.000000
CHANNELS 3 Zrotation Xrotation Yrotation
										End Site
										{
OFFSET 0 -0.326600 -0.000000
										}
									}
								}
								JOINT RThumb
								{
OFFSET 0 0.000000 0.000000
CHANNELS 3 Zrotation Xrotation Yrotation
									End Site
									{
OFFSET 0 -0.331580 0.331580
									}
								}
							}
						}
					}
				}
			}
		}
	}
}
MOTION
Frames: 5
Frame Time: 0.008333333333333333
0.668400 15.642000 -6.286100 1.476000 -1.378300 9.876400 0.000000 0.000000 0.000000 -21.041200 -15.445800 -10.200000 1.580900 7.932400 22.509100 0.497000 12.172400 -22.725300 0.004600 0.437100 1.200900 0.000000 0.000000 0.000000 18.018300 13.208300 -16.982700 -2.938800 -10.595300 30.926800 -1.066500 -8.646800 -24.436300 -0.022000 -0.957900 2.633100 0.188200 -0.411500 -7.016300 -0.733000 -0.580900 -7.687000 -0.883000 -0.324400 -4.043300 10.059400 4.579300 -13.164500 -5.169100 6.248700 43.317500 -3.118700 3.492900 19.481100 0.000000 -0.000000 0.000000 3.810300 15.818900 -20.568500 19.234400 -29.708900 5.146500 3.378200 15.872300 -14.798600 0.000000 0.000000 0.000000 -7.125000 0.000000 0.000000 -21.919200 43.645700 -0.772100 0.000000 -0.000000 0.000000 -3.315800 7.904200 16.757800 -12.657500 -20.783300 -2.330300 -9.268300 20.979000 6.117500 0.000000 0.000000 0.000000 7.125000 0.000000 -0.000000 14.551200 35.845000 3.363300
0.662867 15.641328 -6.286800 1.418286 -1.342336 9.856907 0.000000 0.000000 0.000000 -20.951991 -15.438481 -10.249103 1.594416 7.964498 22.606248 0.504161 12.141414 -22.758282 0.003328 0.374947 1.030253 0.000000 0.000000 0.000000 18.124868 13.480090 -16.811635 -2.927218 -10.576285 30.863896 -1.043313 -8.955874 -24.489555 -0.019289 -0.896955 2.465392 0.214577 -0.394988 -6.969552 -0.701474 -0.558912 -7.669735 -0.864144 -0.313676 -4.050576 10.172460 4.541609 -13.063332 -5.395281 6.249394 43.066186 -3.243880 3.478796 19.305201 0.000000 0.000000 0.000000 3.821532 15.809778 -20.446974 19.169005 -29.628142 5.114103 3.514127 15.971861 -14.778399 0.000000 0.000000 0.000000 -7.125000 0.000000 0.000000 -21.794493 43.641689 -0.769480 0.000000 0.000000 0.000000 -3.292259 7.968266 16.624997 -12.606465 -20.707906 -2.312253 -9.194522 21.115491 6.192122 0.000000 0.000000 0.000000 7.125000 0.000000 0.000000 14.626233 35.914066 3.356269
0.660788 15.640700 -6.284977 1.426263 -1.249086 9.832899 0.000000 0.000000 0.000000 -20.953924 -15.461323 -10.210665 1.593834 7.963267 22.602458 0.508223 12.087579 -22.738762 0.003355 0.376139 1.033451 0.000000 0.000000 0.000000 18.142844 13.408280 -16.779183 -2.928166 -10.577833 30.868998 -1.045634 -8.980082 -24.526917 -0.022900 -0.977666 2.687454 0.233534 -0.399566 -6.955104 -0.716233 -0.565633 -7.622832 -0.890322 -0.317922 -4.009496 10.247949 4.536748 -13.058421 -5.467375 6.236854 42.843223 -3.286831 3.472211 19.164940 0.000000 0.000000 0.000000 3.883507 15.744485 -20.272680 19.113991 -29.560033 5.086940 3.610903 16.019718 -14.789949 0.000000 0.000000 0.000000 -7.125000 0.000000 0.000000 -21.715389 43.662950 -0.754407 0.000000 0.000000 0.000000 -3.263383 7.953191 16.544434 -12.600204 -20.698590 -2.310072 -9.218587 21.158535 6.125094 0.000000 0.000000 0.000000 7.125000 0.000000 0.000000 14.593236 35.849705 3.371899
0.656799 15.641117 -6.282016 1.397753 -1.179692 9.838209 0.000000 0.000000 0.000000 -20.901595 -15.500694 -10.213740 1.597769 7.972588 22.630947 0.510183 12.070207 -22.738605 0.003100 0.360660 0.990916 0.000000 0.000000 0.000000 18.205156 13.370374 -16.754718 -2.923815 -10.570630 30.845156 -1.042231 -9.023185 -24.533698 -0.022500 -0.968516 2.662247 0.248991 -0.400687 -6.966845 -0.711246 -0.567088 -7.582366 -0.894034 -0.318919 -3.960219 10.258251 4.544836 -13.146265 -5.439869 6.217977 42.723710 -3.272742 3.466065 19.108877 0.000000 0.000000 0.000000 3.971688 15.731605 -20.235991 19.097333 -29.539433 5.078766 3.601513 16.034673 -14.779560 0.000000 0.000000 0.000000 -7.125000 0.000000 0.000000 -21.719566 43.652209 -0.760638 0.000000 0.000000 0.000000 -3.312620 7.991892 16.707596 -12.672172 -20.804925 -2.335569 -9.162990 20.922707 6.191117 0.000000 0.000000 0.000000 7.125000 0.000000 0.000000 14.651795 35.911313 3.363460
0.652476 15.641878 -6.279643 1.423595 -1.128534 9.903313 0.000000 0.000000 0.000000 -20.896149 -15.586617 -10.245779 1.594484 7.964734 22.606913 0.505598 12.095764 -22.722832 0.002900 0.349278 0.959824 0.000000 0.000000 0.000000 18.183678 13.382479 -16.822542 -2.926648 -10.575350 30.860597 -1.040335 -9.063348 -24.549525 -0.022689 -0.972783 2.673914 0.198841 -0.402382 -6.953530 -0.715655 -0.567612 -7.610016 -0.870323 -0.316971 -3.996330 10.244702 4.546311 -13.171118 -5.391185 6.193832 42.585379 -3.244940 3.457306 19.019727 0.000000 0.000000 0.000000 4.026004 15.792462 -20.150787 19.065787 -29.500326 5.063188 3.588233 16.090672 -14.741397 0.000000 0.000000 0.000000 -7.125000 0.000000 0.000000 -21.716995 43.615353 -0.781307 0.000000 0.000000 0.000000 -3.361427 8.008626 16.572923 -12.651819 -20.775001 -2.328317 -9.096033 21.098755 6.380479 0.000000 0.000000 0.000000 7.125000 0.000000 0.000000 14.744503 36.092744 3.318579
